<svg xmlns="http://www.w3.org/2000/svg" width="32" height="32"><path d="M28.3 1036.363a12.3 12.3 0 0 1-24.6 0 12.3 12.3 0 1 1 24.6 0z" stroke="#000" stroke-width="3" fill="none" transform="translate(0 -1020.362)"/><path d="M13.713 29.52c-2.636-.477-5.248-1.788-7.146-3.586-3.368-3.19-4.922-8.047-4.01-12.53C3.698 7.813 7.87 3.675 13.526 2.53c1.678-.34 4.518-.22 6.143.263 4.726 1.4 8.224 4.942 9.595 9.71.42 1.465.524 4.414.208 5.972-.764 3.778-2.78 6.83-5.885 8.906-2.863 1.917-6.62 2.73-9.872 2.14zm5.31-3.12c3.585-1.048 6.247-3.685 7.39-7.322.418-1.328.52-3.704.22-5.177-.88-4.35-4.182-7.652-8.534-8.534-1.474-.298-3.85-.197-5.178.22-3.638 1.144-6.28 3.81-7.32 7.39-1.766 6.078 1.953 12.278 8.183 13.642 1.605.35 3.568.27 5.24-.22z" fill="#d40000"/></svg>