<?xml version="1.0" encoding="UTF-8" standalone="no"?>
<!-- Created with Inkscape (http://www.inkscape.org/) -->

<svg
   xmlns:dc="http://purl.org/dc/elements/1.1/"
   xmlns:cc="http://creativecommons.org/ns#"
   xmlns:rdf="http://www.w3.org/1999/02/22-rdf-syntax-ns#"
   xmlns:svg="http://www.w3.org/2000/svg"
   xmlns="http://www.w3.org/2000/svg"
   xmlns:sodipodi="http://sodipodi.sourceforge.net/DTD/sodipodi-0.dtd"
   xmlns:inkscape="http://www.inkscape.org/namespaces/inkscape"
   version="1.1"
   width="32"
   height="32"
   id="svg3116"
   inkscape:version="0.48.4 r9939"
   sodipodi:docname="O.svg">
  <sodipodi:namedview
     pagecolor="#ffffff"
     bordercolor="#666666"
     borderopacity="1"
     objecttolerance="10"
     gridtolerance="10"
     guidetolerance="10"
     inkscape:pageopacity="0"
     inkscape:pageshadow="2"
     inkscape:window-width="1920"
     inkscape:window-height="1029"
     id="namedview7"
     showgrid="false"
     inkscape:zoom="7.375"
     inkscape:cx="16"
     inkscape:cy="16"
     inkscape:window-x="0"
     inkscape:window-y="0"
     inkscape:window-maximized="1"
     inkscape:current-layer="svg3116" />
  <defs
     id="defs3118" />
  <metadata
     id="metadata3121">
    <rdf:RDF>
      <cc:Work
         rdf:about="">
        <dc:format>image/svg+xml</dc:format>
        <dc:type
           rdf:resource="http://purl.org/dc/dcmitype/StillImage" />
        <dc:title></dc:title>
      </cc:Work>
    </rdf:RDF>
  </metadata>
  <g
     transform="translate(0,-1020.3622)"
     id="layer1">
    <path
       d="m 28.300324,1036.3631 a 12.300162,12.300162 0 0 1 -24.6003239,0 12.300162,12.300162 0 1 1 24.6003239,0 z"
       id="path4116"
       style="fill:none;stroke:#000000;stroke-width:3;stroke-miterlimit:4;stroke-opacity:1;stroke-dasharray:none;display:inline" />
  </g>
  <path
     style="fill:#d40000"
     d="M 13.713103,29.521258 C 11.076964,29.04294 8.4653867,27.731849 6.5667288,25.933565 3.1988221,22.743702 1.645054,17.887334 2.558413,13.405406 3.6983258,7.8117578 7.8697984,3.6746693 13.525422,2.5287936 c 1.677945,-0.3399655 4.517731,-0.2178904 6.142868,0.2640662 4.725911,1.4015327 8.224042,4.9416889 9.594231,9.7094882 0.421303,1.465995 0.524326,4.414344 0.208686,5.97223 -0.765602,3.778728 -2.781588,6.829293 -5.885969,8.906575 -2.862861,1.915669 -6.620107,2.730174 -9.872135,2.140105 l 0,0 z m 5.310626,-3.12184 c 3.584431,-1.046926 6.246183,-3.683971 7.39005,-7.321452 0.417557,-1.327825 0.518545,-3.704138 0.220028,-5.177379 C 25.752079,9.5490777 22.450922,6.2479212 18.099413,5.3661927 16.626172,5.0676759 14.249859,5.1686647 12.922034,5.5862214 9.2836114,6.7303843 6.6425557,9.396843 5.6023883,12.976271 c -1.766106,6.077532 1.9528796,12.277404 8.1829737,13.641726 1.60465,0.351401 3.567271,0.269508 5.238367,-0.218579 z"
     id="path2984"
     inkscape:connector-curvature="0" />
</svg>
